<svg width="20" height="20" viewBox="0 0 20 20" fill="none" xmlns="http://www.w3.org/2000/svg">
    <rect width="20" height="20" rx="6" />
    <path
        d="M14.375 15.875H5.625C4.64062 15.875 3.875 15.1094 3.875 14.125V5.375C3.875 4.41797 4.64062 3.625 5.625 3.625H14.375C15.332 3.625 16.125 4.41797 16.125 5.375V14.125C16.125 15.1094 15.332 15.875 14.375 15.875ZM12.625 13.25C13.0898 13.25 13.5 12.8672 13.5 12.375V7.125C13.5 6.66016 13.0898 6.25 12.625 6.25C12.1328 6.25 11.75 6.66016 11.75 7.125V12.375C11.75 12.8672 12.1328 13.25 12.625 13.25ZM10.875 8.875V7.125C10.875 6.66016 10.4648 6.25 10 6.25C9.50781 6.25 9.125 6.66016 9.125 7.125V8.875C9.125 9.36719 9.50781 9.75 10 9.75C10.4648 9.75 10.875 9.36719 10.875 8.875ZM7.375 11.5C7.83984 11.5 8.25 11.1172 8.25 10.625V7.125C8.25 6.66016 7.83984 6.25 7.375 6.25C6.88281 6.25 6.5 6.66016 6.5 7.125V10.625C6.5 11.1172 6.88281 11.5 7.375 11.5Z"
        fill="currentColor" />
</svg>